# Blender 5.2.0 LTS
# www.blender.org
o Cube
v 0.398966 3.198375 -3.344392
v 0.398966 0.023374 -3.344392
v 0.398966 3.198375 3.344392
v 0.398966 0.023374 3.344392
v -0.398966 3.198375 -3.344392
v -0.398966 0.023374 -3.344392
v -0.398966 3.198375 3.344392
v -0.398966 0.023374 3.344392
vn -0.0000 1.0000 -0.0000
vn -0.0000 -0.0000 1.0000
vn -1.0000 -0.0000 -0.0000
vn -0.0000 -1.0000 -0.0000
vn 1.0000 -0.0000 -0.0000
vn -0.0000 -0.0000 -1.0000
vt 0.817486 0.764975
vt 0.726229 0.764975
vt 0.726229 0.000000
vt 0.817486 0.000000
vt 0.908743 0.363115
vt 0.908743 0.000000
vt 1.000000 0.000000
vt 1.000000 0.363115
vt 0.363115 0.764975
vt -0.000000 0.764975
vt 0.000000 0.000000
vt 0.363115 0.000000
vt 0.908743 0.764975
vt 0.817486 0.764975
vt 0.817486 0.000000
vt 0.908743 0.000000
vt 0.363115 0.764975
vt 0.363115 0.000000
vt 0.726229 0.000000
vt 0.908743 0.726229
vt 1.000000 0.726229
s 0
f 1/1/1 5/2/1 7/3/1 3/4/1
f 4/5/2 3/6/2 7/7/2 8/8/2
f 8/9/3 7/10/3 5/11/3 6/12/3
f 6/13/4 2/14/4 4/15/4 8/16/4
f 2/2/5 1/17/5 3/18/5 4/19/5
f 6/20/6 5/5/6 1/8/6 2/21/6
